<mxfile host="app.diagrams.net" agent="Mozilla/5.0 (Windows NT 10.0; Win64; x64) AppleWebKit/537.36 (KHTML, like Gecko) Chrome/135.0.0.0 Safari/537.36" version="26.2.13">
  <diagram name="Страница — 1" id="guuaZgIrbtX1U60UbLGf">
    <mxGraphModel dx="2507" dy="2123" grid="1" gridSize="10" guides="1" tooltips="1" connect="1" arrows="1" fold="1" page="1" pageScale="1" pageWidth="827" pageHeight="1169" math="0" shadow="0">
      <root>
        <mxCell id="0" />
        <mxCell id="1" parent="0" />
        <mxCell id="76xIbu4p8tBeoqtNpgLf-1" value="" style="whiteSpace=wrap;html=1;aspect=fixed;" parent="1" vertex="1">
          <mxGeometry x="20" y="-40" width="1030" height="1030" as="geometry" />
        </mxCell>
        <mxCell id="76xIbu4p8tBeoqtNpgLf-2" value="Кафе" style="text;html=1;align=center;verticalAlign=middle;whiteSpace=wrap;rounded=0;" parent="1" vertex="1">
          <mxGeometry x="458" y="-60" width="102" height="30" as="geometry" />
        </mxCell>
        <mxCell id="76xIbu4p8tBeoqtNpgLf-37" style="edgeStyle=orthogonalEdgeStyle;rounded=0;orthogonalLoop=1;jettySize=auto;html=1;entryX=0;entryY=0.5;entryDx=0;entryDy=0;endArrow=none;endFill=0;" parent="1" source="76xIbu4p8tBeoqtNpgLf-3" target="76xIbu4p8tBeoqtNpgLf-35" edge="1">
          <mxGeometry relative="1" as="geometry" />
        </mxCell>
        <mxCell id="76xIbu4p8tBeoqtNpgLf-38" style="edgeStyle=orthogonalEdgeStyle;rounded=0;orthogonalLoop=1;jettySize=auto;html=1;entryX=0;entryY=0.5;entryDx=0;entryDy=0;endArrow=none;endFill=0;" parent="1" source="76xIbu4p8tBeoqtNpgLf-3" target="76xIbu4p8tBeoqtNpgLf-34" edge="1">
          <mxGeometry relative="1" as="geometry" />
        </mxCell>
        <mxCell id="76xIbu4p8tBeoqtNpgLf-39" style="edgeStyle=orthogonalEdgeStyle;rounded=0;orthogonalLoop=1;jettySize=auto;html=1;entryX=0;entryY=0.5;entryDx=0;entryDy=0;endArrow=none;endFill=0;" parent="1" source="76xIbu4p8tBeoqtNpgLf-3" target="76xIbu4p8tBeoqtNpgLf-36" edge="1">
          <mxGeometry relative="1" as="geometry" />
        </mxCell>
        <mxCell id="76xIbu4p8tBeoqtNpgLf-48" style="edgeStyle=orthogonalEdgeStyle;rounded=0;orthogonalLoop=1;jettySize=auto;html=1;exitX=0.5;exitY=0.5;exitDx=0;exitDy=0;exitPerimeter=0;entryX=0;entryY=0.5;entryDx=0;entryDy=0;endArrow=none;endFill=0;" parent="1" source="76xIbu4p8tBeoqtNpgLf-3" target="76xIbu4p8tBeoqtNpgLf-44" edge="1">
          <mxGeometry relative="1" as="geometry" />
        </mxCell>
        <mxCell id="76xIbu4p8tBeoqtNpgLf-80" style="edgeStyle=orthogonalEdgeStyle;rounded=0;orthogonalLoop=1;jettySize=auto;html=1;endArrow=none;endFill=0;" parent="1" source="76xIbu4p8tBeoqtNpgLf-3" target="76xIbu4p8tBeoqtNpgLf-78" edge="1">
          <mxGeometry relative="1" as="geometry">
            <Array as="points">
              <mxPoint x="15" y="260" />
              <mxPoint x="340" y="260" />
              <mxPoint x="340" y="355" />
            </Array>
          </mxGeometry>
        </mxCell>
        <mxCell id="76xIbu4p8tBeoqtNpgLf-3" value="Зарегистированный&amp;nbsp;&lt;div&gt;пользователь&amp;nbsp;&lt;/div&gt;" style="shape=umlActor;verticalLabelPosition=bottom;verticalAlign=top;html=1;outlineConnect=0;" parent="1" vertex="1">
          <mxGeometry y="380" width="30" height="60" as="geometry" />
        </mxCell>
        <mxCell id="76xIbu4p8tBeoqtNpgLf-9" style="edgeStyle=orthogonalEdgeStyle;rounded=0;orthogonalLoop=1;jettySize=auto;html=1;endArrow=none;endFill=0;" parent="1" source="76xIbu4p8tBeoqtNpgLf-6" target="76xIbu4p8tBeoqtNpgLf-8" edge="1">
          <mxGeometry relative="1" as="geometry" />
        </mxCell>
        <mxCell id="76xIbu4p8tBeoqtNpgLf-27" style="edgeStyle=orthogonalEdgeStyle;rounded=0;orthogonalLoop=1;jettySize=auto;html=1;entryX=0;entryY=0.5;entryDx=0;entryDy=0;endArrow=none;endFill=0;" parent="1" source="76xIbu4p8tBeoqtNpgLf-3" target="76xIbu4p8tBeoqtNpgLf-13" edge="1">
          <mxGeometry relative="1" as="geometry">
            <mxPoint x="50" y="720" as="sourcePoint" />
            <Array as="points">
              <mxPoint x="15" y="720" />
              <mxPoint x="155" y="720" />
              <mxPoint x="155" y="795" />
            </Array>
          </mxGeometry>
        </mxCell>
        <mxCell id="76xIbu4p8tBeoqtNpgLf-33" style="edgeStyle=orthogonalEdgeStyle;rounded=0;orthogonalLoop=1;jettySize=auto;html=1;exitX=0.5;exitY=0.5;exitDx=0;exitDy=0;exitPerimeter=0;entryX=0;entryY=0.5;entryDx=0;entryDy=0;endArrow=none;endFill=0;" parent="1" source="76xIbu4p8tBeoqtNpgLf-6" target="76xIbu4p8tBeoqtNpgLf-29" edge="1">
          <mxGeometry relative="1" as="geometry" />
        </mxCell>
        <mxCell id="76xIbu4p8tBeoqtNpgLf-6" value="Клиент" style="shape=umlActor;verticalLabelPosition=bottom;verticalAlign=top;html=1;outlineConnect=0;" parent="1" vertex="1">
          <mxGeometry x="20" width="30" height="60" as="geometry" />
        </mxCell>
        <mxCell id="76xIbu4p8tBeoqtNpgLf-75" style="edgeStyle=orthogonalEdgeStyle;rounded=0;orthogonalLoop=1;jettySize=auto;html=1;endArrow=none;endFill=0;" parent="1" source="76xIbu4p8tBeoqtNpgLf-7" target="76xIbu4p8tBeoqtNpgLf-60" edge="1">
          <mxGeometry relative="1" as="geometry" />
        </mxCell>
        <mxCell id="76xIbu4p8tBeoqtNpgLf-76" style="edgeStyle=orthogonalEdgeStyle;rounded=0;orthogonalLoop=1;jettySize=auto;html=1;entryX=1;entryY=0.5;entryDx=0;entryDy=0;endArrow=none;endFill=0;" parent="1" source="76xIbu4p8tBeoqtNpgLf-7" target="76xIbu4p8tBeoqtNpgLf-59" edge="1">
          <mxGeometry relative="1" as="geometry" />
        </mxCell>
        <mxCell id="76xIbu4p8tBeoqtNpgLf-7" value="Администратор" style="shape=umlActor;verticalLabelPosition=bottom;verticalAlign=top;html=1;outlineConnect=0;" parent="1" vertex="1">
          <mxGeometry x="1050" y="10" width="30" height="60" as="geometry" />
        </mxCell>
        <mxCell id="76xIbu4p8tBeoqtNpgLf-8" value="Посмотреть меню" style="ellipse;whiteSpace=wrap;html=1;" parent="1" vertex="1">
          <mxGeometry x="190" y="5" width="120" height="50" as="geometry" />
        </mxCell>
        <mxCell id="76xIbu4p8tBeoqtNpgLf-11" style="edgeStyle=orthogonalEdgeStyle;rounded=0;orthogonalLoop=1;jettySize=auto;html=1;entryX=1;entryY=0.5;entryDx=0;entryDy=0;dashed=1;dashPattern=12 12;endArrow=open;endFill=0;" parent="1" source="76xIbu4p8tBeoqtNpgLf-10" target="76xIbu4p8tBeoqtNpgLf-8" edge="1">
          <mxGeometry relative="1" as="geometry" />
        </mxCell>
        <mxCell id="76xIbu4p8tBeoqtNpgLf-12" value="&amp;lt;&amp;lt;extend&amp;gt;&amp;gt;" style="edgeLabel;html=1;align=center;verticalAlign=middle;resizable=0;points=[];" parent="76xIbu4p8tBeoqtNpgLf-11" vertex="1" connectable="0">
          <mxGeometry x="0.0819" y="1" relative="1" as="geometry">
            <mxPoint as="offset" />
          </mxGeometry>
        </mxCell>
        <mxCell id="76xIbu4p8tBeoqtNpgLf-10" value=" Фильтрация меню по категориям" style="ellipse;whiteSpace=wrap;html=1;" parent="1" vertex="1">
          <mxGeometry x="440" y="5" width="120" height="50" as="geometry" />
        </mxCell>
        <mxCell id="76xIbu4p8tBeoqtNpgLf-21" style="edgeStyle=orthogonalEdgeStyle;rounded=0;orthogonalLoop=1;jettySize=auto;html=1;dashed=1;endArrow=open;endFill=0;" parent="1" source="76xIbu4p8tBeoqtNpgLf-13" target="76xIbu4p8tBeoqtNpgLf-14" edge="1">
          <mxGeometry relative="1" as="geometry" />
        </mxCell>
        <mxCell id="76xIbu4p8tBeoqtNpgLf-26" value="&amp;lt;&amp;lt;include&amp;gt;&amp;gt;" style="edgeLabel;html=1;align=center;verticalAlign=middle;resizable=0;points=[];" parent="76xIbu4p8tBeoqtNpgLf-21" vertex="1" connectable="0">
          <mxGeometry x="0.0084" relative="1" as="geometry">
            <mxPoint as="offset" />
          </mxGeometry>
        </mxCell>
        <mxCell id="76xIbu4p8tBeoqtNpgLf-24" style="edgeStyle=orthogonalEdgeStyle;rounded=0;orthogonalLoop=1;jettySize=auto;html=1;entryX=0;entryY=0.5;entryDx=0;entryDy=0;dashed=1;endArrow=open;endFill=0;" parent="1" source="76xIbu4p8tBeoqtNpgLf-13" target="76xIbu4p8tBeoqtNpgLf-15" edge="1">
          <mxGeometry relative="1" as="geometry">
            <Array as="points">
              <mxPoint x="382" y="810" />
              <mxPoint x="382" y="855" />
            </Array>
          </mxGeometry>
        </mxCell>
        <mxCell id="76xIbu4p8tBeoqtNpgLf-25" value="&amp;lt;&amp;lt;include&amp;gt;&amp;gt;" style="edgeLabel;html=1;align=center;verticalAlign=middle;resizable=0;points=[];" parent="76xIbu4p8tBeoqtNpgLf-24" vertex="1" connectable="0">
          <mxGeometry x="-0.2765" relative="1" as="geometry">
            <mxPoint as="offset" />
          </mxGeometry>
        </mxCell>
        <mxCell id="76xIbu4p8tBeoqtNpgLf-13" value="&lt;font style=&quot;font-size: 10px;&quot;&gt;Посмотреть информацию о позиции в меню&lt;/font&gt;" style="ellipse;whiteSpace=wrap;html=1;" parent="1" vertex="1">
          <mxGeometry x="205" y="770" width="130" height="50" as="geometry" />
        </mxCell>
        <mxCell id="76xIbu4p8tBeoqtNpgLf-14" value="&lt;font style=&quot;font-size: 10px;&quot;&gt;Посмотреть&amp;nbsp;граммовку&amp;nbsp;&lt;/font&gt;" style="ellipse;whiteSpace=wrap;html=1;" parent="1" vertex="1">
          <mxGeometry x="450" y="760" width="130" height="50" as="geometry" />
        </mxCell>
        <mxCell id="76xIbu4p8tBeoqtNpgLf-15" value="&lt;font style=&quot;font-size: 10px;&quot;&gt;Просмотреть список ингредиентов&lt;/font&gt;" style="ellipse;whiteSpace=wrap;html=1;" parent="1" vertex="1">
          <mxGeometry x="429" y="850" width="130" height="50" as="geometry" />
        </mxCell>
        <mxCell id="76xIbu4p8tBeoqtNpgLf-29" value="&lt;span data-end=&quot;685&quot; data-start=&quot;660&quot;&gt;Выполнить регистрацию&lt;/span&gt;" style="ellipse;whiteSpace=wrap;html=1;" parent="1" vertex="1">
          <mxGeometry x="270" y="110" width="120" height="50" as="geometry" />
        </mxCell>
        <mxCell id="76xIbu4p8tBeoqtNpgLf-30" style="edgeStyle=orthogonalEdgeStyle;rounded=0;orthogonalLoop=1;jettySize=auto;html=1;entryX=1;entryY=0.5;entryDx=0;entryDy=0;dashed=1;dashPattern=12 12;endArrow=open;endFill=0;" parent="1" source="76xIbu4p8tBeoqtNpgLf-32" target="76xIbu4p8tBeoqtNpgLf-29" edge="1">
          <mxGeometry relative="1" as="geometry" />
        </mxCell>
        <mxCell id="76xIbu4p8tBeoqtNpgLf-31" value="&amp;lt;&amp;lt;extend&amp;gt;&amp;gt;" style="edgeLabel;html=1;align=center;verticalAlign=middle;resizable=0;points=[];" parent="76xIbu4p8tBeoqtNpgLf-30" vertex="1" connectable="0">
          <mxGeometry x="0.0819" y="1" relative="1" as="geometry">
            <mxPoint as="offset" />
          </mxGeometry>
        </mxCell>
        <mxCell id="76xIbu4p8tBeoqtNpgLf-32" value="  Войти в систему" style="ellipse;whiteSpace=wrap;html=1;" parent="1" vertex="1">
          <mxGeometry x="429" y="230" width="120" height="50" as="geometry" />
        </mxCell>
        <mxCell id="76xIbu4p8tBeoqtNpgLf-34" value="&lt;span style=&quot;font-size: 10px;&quot;&gt;Оставить отзыв&lt;/span&gt;" style="ellipse;whiteSpace=wrap;html=1;" parent="1" vertex="1">
          <mxGeometry x="170" y="380" width="170" height="60" as="geometry" />
        </mxCell>
        <mxCell id="76xIbu4p8tBeoqtNpgLf-35" value="&lt;span data-end=&quot;685&quot; data-start=&quot;660&quot;&gt;Добавить позицию в избраное&lt;/span&gt;" style="ellipse;whiteSpace=wrap;html=1;" parent="1" vertex="1">
          <mxGeometry x="190" y="300" width="120" height="50" as="geometry" />
        </mxCell>
        <mxCell id="76xIbu4p8tBeoqtNpgLf-36" value="Бронирование свободных столов" style="ellipse;whiteSpace=wrap;html=1;" parent="1" vertex="1">
          <mxGeometry x="160" y="470" width="160" height="60" as="geometry" />
        </mxCell>
        <mxCell id="76xIbu4p8tBeoqtNpgLf-43" value="&lt;span data-end=&quot;685&quot; data-start=&quot;660&quot;&gt;Заполнить информацию о заказе&lt;/span&gt;" style="ellipse;whiteSpace=wrap;html=1;" parent="1" vertex="1">
          <mxGeometry x="458" y="510" width="160" height="60" as="geometry" />
        </mxCell>
        <mxCell id="76xIbu4p8tBeoqtNpgLf-52" style="edgeStyle=orthogonalEdgeStyle;rounded=0;orthogonalLoop=1;jettySize=auto;html=1;entryX=0;entryY=0.5;entryDx=0;entryDy=0;dashed=1;endArrow=open;endFill=0;" parent="1" source="76xIbu4p8tBeoqtNpgLf-44" target="76xIbu4p8tBeoqtNpgLf-43" edge="1">
          <mxGeometry relative="1" as="geometry" />
        </mxCell>
        <mxCell id="76xIbu4p8tBeoqtNpgLf-56" value="&amp;lt;&amp;lt;include&amp;gt;&amp;gt;" style="edgeLabel;html=1;align=center;verticalAlign=middle;resizable=0;points=[];" parent="76xIbu4p8tBeoqtNpgLf-52" vertex="1" connectable="0">
          <mxGeometry x="0.0583" y="2" relative="1" as="geometry">
            <mxPoint as="offset" />
          </mxGeometry>
        </mxCell>
        <mxCell id="76xIbu4p8tBeoqtNpgLf-53" style="edgeStyle=orthogonalEdgeStyle;rounded=0;orthogonalLoop=1;jettySize=auto;html=1;exitX=1;exitY=1;exitDx=0;exitDy=0;dashed=1;endArrow=open;endFill=0;" parent="1" source="76xIbu4p8tBeoqtNpgLf-44" target="76xIbu4p8tBeoqtNpgLf-45" edge="1">
          <mxGeometry relative="1" as="geometry" />
        </mxCell>
        <mxCell id="76xIbu4p8tBeoqtNpgLf-57" value="&amp;lt;&amp;lt;include&amp;gt;&amp;gt;" style="edgeLabel;html=1;align=center;verticalAlign=middle;resizable=0;points=[];" parent="76xIbu4p8tBeoqtNpgLf-53" vertex="1" connectable="0">
          <mxGeometry x="0.1216" y="1" relative="1" as="geometry">
            <mxPoint as="offset" />
          </mxGeometry>
        </mxCell>
        <mxCell id="76xIbu4p8tBeoqtNpgLf-55" style="edgeStyle=orthogonalEdgeStyle;rounded=0;orthogonalLoop=1;jettySize=auto;html=1;exitX=0.5;exitY=1;exitDx=0;exitDy=0;entryX=0;entryY=0.5;entryDx=0;entryDy=0;dashed=1;endArrow=open;endFill=0;" parent="1" source="76xIbu4p8tBeoqtNpgLf-44" target="76xIbu4p8tBeoqtNpgLf-46" edge="1">
          <mxGeometry relative="1" as="geometry" />
        </mxCell>
        <mxCell id="76xIbu4p8tBeoqtNpgLf-58" value="&amp;lt;&amp;lt;include&amp;gt;&amp;gt;" style="edgeLabel;html=1;align=center;verticalAlign=middle;resizable=0;points=[];" parent="76xIbu4p8tBeoqtNpgLf-55" vertex="1" connectable="0">
          <mxGeometry x="0.4215" y="-4" relative="1" as="geometry">
            <mxPoint as="offset" />
          </mxGeometry>
        </mxCell>
        <mxCell id="76xIbu4p8tBeoqtNpgLf-44" value="&lt;span data-end=&quot;685&quot; data-start=&quot;660&quot;&gt;Добавить позицию в корзину&lt;/span&gt;" style="ellipse;whiteSpace=wrap;html=1;" parent="1" vertex="1">
          <mxGeometry x="160" y="555" width="160" height="60" as="geometry" />
        </mxCell>
        <mxCell id="76xIbu4p8tBeoqtNpgLf-45" value="&lt;span data-end=&quot;685&quot; data-start=&quot;660&quot;&gt; Указать количество позиций&lt;/span&gt;" style="ellipse;whiteSpace=wrap;html=1;" parent="1" vertex="1">
          <mxGeometry x="470" y="584.5" width="160" height="60" as="geometry" />
        </mxCell>
        <mxCell id="76xIbu4p8tBeoqtNpgLf-46" value="&lt;span data-end=&quot;685&quot; data-start=&quot;660&quot;&gt;Добавить описание к заказу&lt;/span&gt;" style="ellipse;whiteSpace=wrap;html=1;" parent="1" vertex="1">
          <mxGeometry x="420" y="660" width="160" height="60" as="geometry" />
        </mxCell>
        <mxCell id="76xIbu4p8tBeoqtNpgLf-59" value="Управление заказами" style="ellipse;whiteSpace=wrap;html=1;" parent="1" vertex="1">
          <mxGeometry x="800" y="110" width="120" height="50" as="geometry" />
        </mxCell>
        <mxCell id="76xIbu4p8tBeoqtNpgLf-60" value="Редактирование меню" style="ellipse;whiteSpace=wrap;html=1;" parent="1" vertex="1">
          <mxGeometry x="770" y="20" width="120" height="50" as="geometry" />
        </mxCell>
        <mxCell id="76xIbu4p8tBeoqtNpgLf-68" style="edgeStyle=orthogonalEdgeStyle;rounded=0;orthogonalLoop=1;jettySize=auto;html=1;entryX=0.5;entryY=1;entryDx=0;entryDy=0;startArrow=none;startFill=0;dashed=1;endArrow=open;endFill=0;" parent="1" source="76xIbu4p8tBeoqtNpgLf-61" target="76xIbu4p8tBeoqtNpgLf-60" edge="1">
          <mxGeometry relative="1" as="geometry" />
        </mxCell>
        <mxCell id="76xIbu4p8tBeoqtNpgLf-73" value="&amp;lt;&amp;lt;extend&amp;gt;&amp;gt;" style="edgeLabel;html=1;align=center;verticalAlign=middle;resizable=0;points=[];" parent="76xIbu4p8tBeoqtNpgLf-68" vertex="1" connectable="0">
          <mxGeometry x="-0.0492" y="2" relative="1" as="geometry">
            <mxPoint as="offset" />
          </mxGeometry>
        </mxCell>
        <mxCell id="76xIbu4p8tBeoqtNpgLf-61" value="Редактировать позицию в меню" style="ellipse;whiteSpace=wrap;html=1;" parent="1" vertex="1">
          <mxGeometry x="600" y="30" width="120" height="50" as="geometry" />
        </mxCell>
        <mxCell id="76xIbu4p8tBeoqtNpgLf-62" value="Удалить позицию в меню" style="ellipse;whiteSpace=wrap;html=1;" parent="1" vertex="1">
          <mxGeometry x="600" y="-50" width="120" height="50" as="geometry" />
        </mxCell>
        <mxCell id="76xIbu4p8tBeoqtNpgLf-67" style="edgeStyle=orthogonalEdgeStyle;rounded=0;orthogonalLoop=1;jettySize=auto;html=1;startArrow=none;startFill=0;dashed=1;endArrow=open;endFill=0;" parent="1" source="76xIbu4p8tBeoqtNpgLf-64" target="76xIbu4p8tBeoqtNpgLf-59" edge="1">
          <mxGeometry relative="1" as="geometry" />
        </mxCell>
        <mxCell id="76xIbu4p8tBeoqtNpgLf-71" value="&amp;lt;&amp;lt;extend&amp;gt;&amp;gt;" style="edgeLabel;html=1;align=center;verticalAlign=middle;resizable=0;points=[];" parent="76xIbu4p8tBeoqtNpgLf-67" vertex="1" connectable="0">
          <mxGeometry x="-0.2506" y="-2" relative="1" as="geometry">
            <mxPoint as="offset" />
          </mxGeometry>
        </mxCell>
        <mxCell id="76xIbu4p8tBeoqtNpgLf-64" value="  Закрытие заказа" style="ellipse;whiteSpace=wrap;html=1;" parent="1" vertex="1">
          <mxGeometry x="630" y="150" width="120" height="50" as="geometry" />
        </mxCell>
        <mxCell id="76xIbu4p8tBeoqtNpgLf-69" style="edgeStyle=orthogonalEdgeStyle;rounded=0;orthogonalLoop=1;jettySize=auto;html=1;entryX=0.55;entryY=0.063;entryDx=0;entryDy=0;entryPerimeter=0;startArrow=none;startFill=0;dashed=1;endArrow=open;endFill=0;" parent="1" source="76xIbu4p8tBeoqtNpgLf-62" target="76xIbu4p8tBeoqtNpgLf-60" edge="1">
          <mxGeometry relative="1" as="geometry" />
        </mxCell>
        <mxCell id="76xIbu4p8tBeoqtNpgLf-74" value="&amp;lt;&amp;lt;extend&amp;gt;&amp;gt;" style="edgeLabel;html=1;align=center;verticalAlign=middle;resizable=0;points=[];" parent="76xIbu4p8tBeoqtNpgLf-69" vertex="1" connectable="0">
          <mxGeometry x="-0.535" y="-2" relative="1" as="geometry">
            <mxPoint as="offset" />
          </mxGeometry>
        </mxCell>
        <mxCell id="76xIbu4p8tBeoqtNpgLf-79" style="edgeStyle=orthogonalEdgeStyle;rounded=0;orthogonalLoop=1;jettySize=auto;html=1;endArrow=none;endFill=0;" parent="1" source="76xIbu4p8tBeoqtNpgLf-78" target="76xIbu4p8tBeoqtNpgLf-7" edge="1">
          <mxGeometry relative="1" as="geometry" />
        </mxCell>
        <mxCell id="76xIbu4p8tBeoqtNpgLf-78" value="  Авторизация" style="ellipse;whiteSpace=wrap;html=1;" parent="1" vertex="1">
          <mxGeometry x="650" y="330" width="120" height="50" as="geometry" />
        </mxCell>
        <mxCell id="02FPiiT5RiiiPUzlOD-r-4" style="edgeStyle=orthogonalEdgeStyle;rounded=0;orthogonalLoop=1;jettySize=auto;html=1;startArrow=none;startFill=0;dashed=1;endArrow=open;endFill=0;entryX=0.504;entryY=0.952;entryDx=0;entryDy=0;entryPerimeter=0;" parent="1" source="02FPiiT5RiiiPUzlOD-r-6" target="76xIbu4p8tBeoqtNpgLf-59" edge="1">
          <mxGeometry relative="1" as="geometry">
            <mxPoint x="810" y="200" as="targetPoint" />
          </mxGeometry>
        </mxCell>
        <mxCell id="02FPiiT5RiiiPUzlOD-r-5" value="&amp;lt;&amp;lt;extend&amp;gt;&amp;gt;" style="edgeLabel;html=1;align=center;verticalAlign=middle;resizable=0;points=[];" parent="02FPiiT5RiiiPUzlOD-r-4" vertex="1" connectable="0">
          <mxGeometry x="-0.2506" y="-2" relative="1" as="geometry">
            <mxPoint as="offset" />
          </mxGeometry>
        </mxCell>
        <mxCell id="02FPiiT5RiiiPUzlOD-r-6" value="  Изменение статуса заказа" style="ellipse;whiteSpace=wrap;html=1;" parent="1" vertex="1">
          <mxGeometry x="640" y="215" width="120" height="50" as="geometry" />
        </mxCell>
        <mxCell id="02FPiiT5RiiiPUzlOD-r-7" style="edgeStyle=orthogonalEdgeStyle;rounded=0;orthogonalLoop=1;jettySize=auto;html=1;startArrow=none;startFill=0;dashed=1;endArrow=open;endFill=0;entryX=0.695;entryY=0.952;entryDx=0;entryDy=0;entryPerimeter=0;" parent="1" source="02FPiiT5RiiiPUzlOD-r-9" target="76xIbu4p8tBeoqtNpgLf-60" edge="1">
          <mxGeometry relative="1" as="geometry">
            <mxPoint x="769.5" y="70" as="targetPoint" />
          </mxGeometry>
        </mxCell>
        <mxCell id="02FPiiT5RiiiPUzlOD-r-8" value="&amp;lt;&amp;lt;extend&amp;gt;&amp;gt;" style="edgeLabel;html=1;align=center;verticalAlign=middle;resizable=0;points=[];" parent="02FPiiT5RiiiPUzlOD-r-7" vertex="1" connectable="0">
          <mxGeometry x="-0.2506" y="-2" relative="1" as="geometry">
            <mxPoint as="offset" />
          </mxGeometry>
        </mxCell>
        <mxCell id="02FPiiT5RiiiPUzlOD-r-9" value="  Добавить позицию в меню" style="ellipse;whiteSpace=wrap;html=1;" parent="1" vertex="1">
          <mxGeometry x="599.5" y="85" width="120" height="50" as="geometry" />
        </mxCell>
      </root>
    </mxGraphModel>
  </diagram>
</mxfile>
